<?xml version="1.0" encoding="UTF-8" standalone="no"?>
<!DOCTYPE svg PUBLIC "-//W3C//DTD SVG 1.1//EN" "http://www.w3.org/Graphics/SVG/1.1/DTD/svg11.dtd">
<svg width="100%" height="100%" viewBox="0 0 161 23" version="1.1" xmlns="http://www.w3.org/2000/svg" xmlns:xlink="http://www.w3.org/1999/xlink" xml:space="preserve" xmlns:serif="http://www.serif.com/" style="fill-rule:evenodd;clip-rule:evenodd;stroke-linejoin:round;stroke-miterlimit:2;">
    <g transform="matrix(1,0,0,1,0,-12)">
        <path d="M15.09,21.76C16.91,21.76 18.03,19.1 18.03,17.42C18.03,16.02 17.33,14.34 15.93,14.34C14.11,14.34 12.99,17 12.99,18.68C12.99,20.08 13.69,21.76 15.09,21.76ZM9.77,21.76C11.17,21.76 11.87,20.08 11.87,18.68C11.87,16.86 10.75,14.2 8.93,14.2C7.53,14.2 6.83,15.88 6.83,17.28C6.69,19.1 7.81,21.76 9.77,21.76ZM20.13,20.36C18.31,20.36 17.05,22.88 17.05,24.7C17.05,25.96 17.61,27.22 18.87,27.22C20.69,27.22 21.95,24.7 21.95,22.88C21.95,21.62 21.25,20.36 20.13,20.36ZM7.95,24.7C7.95,22.88 6.55,20.36 4.87,20.36C3.61,20.36 3.05,21.62 3.05,22.88C3.05,24.7 4.45,27.22 6.13,27.22C7.39,27.22 7.95,25.96 7.95,24.7ZM12.43,24.42C9.63,24.42 5.85,28.9 5.85,31.98C5.85,33.38 6.83,33.8 7.95,33.8C9.63,33.8 10.89,32.68 12.43,32.68C13.83,32.68 15.09,33.8 16.63,33.8C17.75,33.8 19.01,33.52 19.01,31.98C19.01,28.9 15.23,24.42 12.43,24.42Z" style="fill:rgb(83,42,149);fill-opacity:0.7;fill-rule:nonzero;"/>
    </g>
    <g transform="matrix(1,0,0,1,0,-12)">
        <path d="M39.534,25.866L35.355,25.866L35.355,24.18L39.534,24.18C40.343,24.18 40.999,24.051 41.5,23.793C42.001,23.535 42.366,23.177 42.596,22.719C42.832,22.26 42.95,21.738 42.95,21.15C42.95,20.613 42.832,20.108 42.596,19.636C42.366,19.163 42.001,18.784 41.5,18.497C40.999,18.203 40.343,18.057 39.534,18.057L35.839,18.057L35.839,32L33.765,32L33.765,16.359L39.534,16.359C40.716,16.359 41.715,16.564 42.531,16.972C43.347,17.38 43.967,17.946 44.389,18.669C44.812,19.385 45.023,20.205 45.023,21.129C45.023,22.132 44.812,22.987 44.389,23.696C43.967,24.405 43.347,24.946 42.531,25.318C41.715,25.684 40.716,25.866 39.534,25.866ZM52.016,32.215C51.207,32.215 50.473,32.079 49.814,31.807C49.163,31.527 48.6,31.137 48.128,30.636C47.662,30.134 47.304,29.54 47.054,28.853C46.803,28.165 46.678,27.413 46.678,26.597L46.678,26.145C46.678,25.2 46.817,24.359 47.096,23.621C47.376,22.876 47.755,22.246 48.235,21.731C48.715,21.215 49.259,20.825 49.868,20.56C50.477,20.295 51.107,20.162 51.759,20.162C52.589,20.162 53.305,20.305 53.907,20.592C54.516,20.878 55.013,21.279 55.4,21.795C55.787,22.303 56.073,22.905 56.26,23.6C56.446,24.287 56.539,25.039 56.539,25.856L56.539,26.747L47.859,26.747L47.859,25.125L54.551,25.125L54.551,24.975C54.523,24.459 54.415,23.958 54.229,23.471C54.05,22.984 53.764,22.583 53.37,22.268C52.976,21.953 52.439,21.795 51.759,21.795C51.307,21.795 50.892,21.892 50.513,22.085C50.133,22.271 49.807,22.551 49.535,22.923C49.263,23.295 49.051,23.75 48.901,24.287C48.751,24.824 48.676,25.444 48.676,26.145L48.676,26.597C48.676,27.148 48.751,27.667 48.901,28.154C49.059,28.634 49.284,29.057 49.578,29.422C49.879,29.787 50.24,30.074 50.663,30.281C51.093,30.489 51.58,30.593 52.124,30.593C52.826,30.593 53.42,30.45 53.907,30.163C54.394,29.877 54.82,29.494 55.185,29.014L56.388,29.97C56.138,30.349 55.819,30.711 55.432,31.055C55.046,31.398 54.569,31.678 54.004,31.893C53.445,32.107 52.783,32.215 52.016,32.215ZM63.725,20.377L63.725,21.902L57.441,21.902L57.441,20.377L63.725,20.377ZM59.568,17.552L61.555,17.552L61.555,29.121C61.555,29.515 61.616,29.812 61.738,30.013C61.86,30.213 62.017,30.346 62.211,30.41C62.404,30.475 62.612,30.507 62.834,30.507C62.999,30.507 63.17,30.493 63.349,30.464C63.536,30.428 63.675,30.399 63.768,30.378L63.779,32C63.621,32.05 63.414,32.097 63.156,32.14C62.905,32.19 62.601,32.215 62.243,32.215C61.756,32.215 61.308,32.118 60.9,31.925C60.492,31.731 60.166,31.409 59.923,30.958C59.686,30.5 59.568,29.884 59.568,29.11L59.568,17.552ZM72.824,28.917C72.824,28.631 72.76,28.366 72.631,28.122C72.509,27.871 72.255,27.646 71.868,27.445C71.488,27.238 70.915,27.059 70.149,26.908C69.505,26.772 68.921,26.611 68.398,26.425C67.883,26.239 67.442,26.013 67.077,25.748C66.719,25.483 66.443,25.172 66.25,24.814C66.056,24.455 65.96,24.037 65.96,23.557C65.96,23.098 66.06,22.665 66.26,22.257C66.468,21.849 66.758,21.487 67.131,21.172C67.51,20.857 67.965,20.61 68.495,20.431C69.025,20.252 69.616,20.162 70.267,20.162C71.198,20.162 71.993,20.327 72.652,20.656C73.311,20.986 73.816,21.426 74.167,21.978C74.518,22.522 74.693,23.127 74.693,23.793L72.706,23.793C72.706,23.471 72.609,23.159 72.416,22.858C72.23,22.551 71.954,22.296 71.589,22.096C71.231,21.895 70.79,21.795 70.267,21.795C69.716,21.795 69.268,21.881 68.925,22.053C68.588,22.217 68.341,22.429 68.183,22.687C68.033,22.944 67.958,23.217 67.958,23.503C67.958,23.718 67.994,23.911 68.065,24.083C68.144,24.248 68.28,24.402 68.473,24.545C68.667,24.681 68.939,24.81 69.29,24.932C69.641,25.053 70.088,25.175 70.633,25.297C71.585,25.512 72.369,25.77 72.985,26.07C73.601,26.371 74.059,26.74 74.36,27.177C74.661,27.614 74.811,28.144 74.811,28.767C74.811,29.275 74.704,29.741 74.489,30.163C74.281,30.586 73.977,30.951 73.576,31.259C73.182,31.56 72.709,31.796 72.158,31.968C71.614,32.133 71.001,32.215 70.321,32.215C69.297,32.215 68.43,32.032 67.721,31.667C67.013,31.302 66.475,30.829 66.11,30.249C65.745,29.669 65.562,29.057 65.562,28.412L67.56,28.412C67.589,28.956 67.747,29.39 68.033,29.712C68.319,30.027 68.67,30.253 69.086,30.389C69.501,30.518 69.913,30.582 70.321,30.582C70.865,30.582 71.32,30.51 71.685,30.367C72.058,30.224 72.341,30.027 72.534,29.776C72.727,29.526 72.824,29.239 72.824,28.917ZM81.955,32L78.689,32L78.711,30.314L81.955,30.314C83.072,30.314 84.003,30.081 84.748,29.615C85.493,29.143 86.051,28.484 86.424,27.639C86.803,26.787 86.993,25.791 86.993,24.652L86.993,23.696C86.993,22.801 86.885,22.006 86.671,21.312C86.456,20.61 86.141,20.019 85.725,19.539C85.31,19.052 84.802,18.683 84.2,18.433C83.606,18.182 82.922,18.057 82.148,18.057L78.625,18.057L78.625,16.359L82.148,16.359C83.172,16.359 84.107,16.531 84.952,16.875C85.797,17.212 86.524,17.702 87.133,18.347C87.749,18.984 88.221,19.758 88.551,20.667C88.88,21.569 89.045,22.586 89.045,23.718L89.045,24.652C89.045,25.784 88.88,26.804 88.551,27.714C88.221,28.616 87.745,29.386 87.122,30.023C86.506,30.661 85.761,31.151 84.888,31.495C84.021,31.832 83.043,32 81.955,32ZM79.796,16.359L79.796,32L77.722,32L77.722,16.359L79.796,16.359ZM94.018,20.377L94.018,32L92.02,32L92.02,20.377L94.018,20.377ZM91.87,17.294C91.87,16.972 91.967,16.7 92.16,16.478C92.36,16.256 92.654,16.145 93.041,16.145C93.42,16.145 93.71,16.256 93.911,16.478C94.119,16.7 94.222,16.972 94.222,17.294C94.222,17.602 94.119,17.867 93.911,18.089C93.71,18.304 93.42,18.411 93.041,18.411C92.654,18.411 92.36,18.304 92.16,18.089C91.967,17.867 91.87,17.602 91.87,17.294ZM104.535,29.744L104.535,15.5L106.533,15.5L106.533,32L104.707,32L104.535,29.744ZM96.715,26.317L96.715,26.092C96.715,25.204 96.822,24.398 97.037,23.675C97.259,22.944 97.57,22.318 97.971,21.795C98.38,21.272 98.863,20.871 99.422,20.592C99.987,20.305 100.618,20.162 101.312,20.162C102.043,20.162 102.68,20.291 103.224,20.549C103.776,20.799 104.241,21.168 104.621,21.655C105.008,22.135 105.312,22.715 105.534,23.395C105.756,24.076 105.91,24.846 105.996,25.705L105.996,26.693C105.917,27.546 105.763,28.312 105.534,28.992C105.312,29.673 105.008,30.253 104.621,30.732C104.241,31.212 103.776,31.581 103.224,31.839C102.673,32.09 102.028,32.215 101.291,32.215C100.61,32.215 99.987,32.068 99.422,31.774C98.863,31.481 98.38,31.069 97.971,30.539C97.57,30.009 97.259,29.386 97.037,28.67C96.822,27.947 96.715,27.162 96.715,26.317ZM98.713,26.092L98.713,26.317C98.713,26.898 98.77,27.442 98.885,27.95C99.006,28.459 99.193,28.906 99.443,29.293C99.694,29.68 100.012,29.984 100.399,30.206C100.786,30.421 101.248,30.528 101.785,30.528C102.444,30.528 102.984,30.389 103.407,30.109C103.837,29.83 104.18,29.461 104.438,29.003C104.696,28.545 104.897,28.047 105.04,27.51L105.04,24.921C104.954,24.527 104.829,24.148 104.664,23.782C104.506,23.41 104.299,23.08 104.041,22.794C103.79,22.5 103.479,22.268 103.106,22.096C102.741,21.924 102.308,21.838 101.806,21.838C101.262,21.838 100.793,21.953 100.399,22.182C100.012,22.404 99.694,22.712 99.443,23.106C99.193,23.492 99.006,23.943 98.885,24.459C98.77,24.967 98.713,25.512 98.713,26.092ZM109.1,26.317L109.1,26.07C109.1,25.232 109.222,24.455 109.466,23.739C109.709,23.016 110.06,22.389 110.518,21.859C110.977,21.322 111.532,20.907 112.183,20.613C112.835,20.313 113.566,20.162 114.375,20.162C115.191,20.162 115.925,20.313 116.577,20.613C117.236,20.907 117.794,21.322 118.253,21.859C118.718,22.389 119.073,23.016 119.316,23.739C119.56,24.455 119.681,25.232 119.681,26.07L119.681,26.317C119.681,27.155 119.56,27.932 119.316,28.648C119.073,29.365 118.718,29.991 118.253,30.528C117.794,31.058 117.239,31.474 116.588,31.774C115.943,32.068 115.213,32.215 114.396,32.215C113.58,32.215 112.846,32.068 112.194,31.774C111.542,31.474 110.984,31.058 110.518,30.528C110.06,29.991 109.709,29.365 109.466,28.648C109.222,27.932 109.1,27.155 109.1,26.317ZM111.088,26.07L111.088,26.317C111.088,26.898 111.156,27.445 111.292,27.961C111.428,28.469 111.632,28.921 111.904,29.315C112.183,29.708 112.531,30.02 112.946,30.249C113.361,30.471 113.845,30.582 114.396,30.582C114.941,30.582 115.417,30.471 115.825,30.249C116.24,30.02 116.584,29.708 116.856,29.315C117.128,28.921 117.332,28.469 117.469,27.961C117.612,27.445 117.683,26.898 117.683,26.317L117.683,26.07C117.683,25.497 117.612,24.957 117.469,24.448C117.332,23.933 117.125,23.478 116.845,23.084C116.573,22.683 116.23,22.368 115.814,22.139C115.406,21.91 114.926,21.795 114.375,21.795C113.83,21.795 113.351,21.91 112.935,22.139C112.527,22.368 112.183,22.683 111.904,23.084C111.632,23.478 111.428,23.933 111.292,24.448C111.156,24.957 111.088,25.497 111.088,26.07ZM128.941,28.917C128.941,28.631 128.877,28.366 128.748,28.122C128.626,27.871 128.372,27.646 127.985,27.445C127.606,27.238 127.033,27.059 126.266,26.908C125.622,26.772 125.038,26.611 124.515,26.425C124,26.239 123.559,26.013 123.194,25.748C122.836,25.483 122.56,25.172 122.367,24.814C122.174,24.455 122.077,24.037 122.077,23.557C122.077,23.098 122.177,22.665 122.378,22.257C122.585,21.849 122.875,21.487 123.248,21.172C123.627,20.857 124.082,20.61 124.612,20.431C125.142,20.252 125.733,20.162 126.385,20.162C127.316,20.162 128.11,20.327 128.769,20.656C129.428,20.986 129.933,21.426 130.284,21.978C130.635,22.522 130.81,23.127 130.81,23.793L128.823,23.793C128.823,23.471 128.726,23.159 128.533,22.858C128.347,22.551 128.071,22.296 127.706,22.096C127.348,21.895 126.907,21.795 126.385,21.795C125.833,21.795 125.385,21.881 125.042,22.053C124.705,22.217 124.458,22.429 124.301,22.687C124.15,22.944 124.075,23.217 124.075,23.503C124.075,23.718 124.111,23.911 124.182,24.083C124.261,24.248 124.397,24.402 124.591,24.545C124.784,24.681 125.056,24.81 125.407,24.932C125.758,25.053 126.205,25.175 126.75,25.297C127.702,25.512 128.486,25.77 129.102,26.07C129.718,26.371 130.177,26.74 130.477,27.177C130.778,27.614 130.928,28.144 130.928,28.767C130.928,29.275 130.821,29.741 130.606,30.163C130.399,30.586 130.094,30.951 129.693,31.259C129.299,31.56 128.827,31.796 128.275,31.968C127.731,32.133 127.119,32.215 126.438,32.215C125.414,32.215 124.548,32.032 123.839,31.667C123.13,31.302 122.593,30.829 122.227,30.249C121.862,29.669 121.679,29.057 121.679,28.412L123.677,28.412C123.706,28.956 123.864,29.39 124.15,29.712C124.437,30.027 124.788,30.253 125.203,30.389C125.618,30.518 126.03,30.582 126.438,30.582C126.983,30.582 127.437,30.51 127.802,30.367C128.175,30.224 128.458,30.027 128.651,29.776C128.844,29.526 128.941,29.239 128.941,28.917ZM140.016,16.359L144.077,24.212L148.148,16.359L150.501,16.359L145.108,26.156L145.108,32L143.035,32L143.035,26.156L137.642,16.359L140.016,16.359ZM158.267,30.013L158.267,24.029C158.267,23.571 158.174,23.174 157.988,22.837C157.809,22.493 157.537,22.228 157.172,22.042C156.806,21.856 156.355,21.763 155.818,21.763C155.317,21.763 154.876,21.849 154.497,22.02C154.124,22.192 153.831,22.418 153.616,22.697C153.408,22.977 153.304,23.277 153.304,23.6L151.317,23.6C151.317,23.184 151.425,22.773 151.639,22.364C151.854,21.956 152.162,21.587 152.563,21.258C152.971,20.921 153.458,20.656 154.024,20.463C154.597,20.262 155.234,20.162 155.936,20.162C156.781,20.162 157.526,20.305 158.171,20.592C158.822,20.878 159.331,21.312 159.696,21.892C160.068,22.465 160.255,23.184 160.255,24.051L160.255,29.465C160.255,29.852 160.287,30.263 160.351,30.7C160.423,31.137 160.527,31.513 160.663,31.828L160.663,32L158.59,32C158.489,31.771 158.411,31.467 158.353,31.087C158.296,30.7 158.267,30.342 158.267,30.013ZM158.611,24.953L158.633,26.35L156.624,26.35C156.058,26.35 155.553,26.396 155.109,26.489C154.665,26.575 154.293,26.708 153.992,26.887C153.691,27.066 153.462,27.291 153.304,27.564C153.147,27.828 153.068,28.14 153.068,28.498C153.068,28.863 153.15,29.196 153.315,29.497C153.48,29.798 153.727,30.038 154.056,30.217C154.393,30.389 154.805,30.475 155.292,30.475C155.9,30.475 156.438,30.346 156.903,30.088C157.369,29.83 157.737,29.515 158.01,29.143C158.289,28.77 158.439,28.409 158.461,28.058L159.309,29.014C159.259,29.315 159.123,29.648 158.901,30.013C158.679,30.378 158.382,30.729 158.01,31.065C157.644,31.395 157.207,31.671 156.699,31.893C156.198,32.107 155.632,32.215 155.002,32.215C154.214,32.215 153.523,32.061 152.928,31.753C152.341,31.445 151.883,31.033 151.553,30.518C151.231,29.995 151.07,29.411 151.07,28.767C151.07,28.144 151.192,27.596 151.435,27.123C151.679,26.643 152.03,26.246 152.488,25.931C152.946,25.608 153.498,25.365 154.142,25.2C154.787,25.036 155.507,24.953 156.302,24.953L158.611,24.953Z" style="fill:rgb(85,19,145);fill-rule:nonzero;"/>
    </g>
</svg>
